<?xml version="1.0" encoding="UTF-8" standalone="no"?>
<!-- Created with Inkscape (http://www.inkscape.org/) -->

<svg
   xmlns:dc="http://purl.org/dc/elements/1.1/"
   xmlns:cc="http://creativecommons.org/ns#"
   xmlns:rdf="http://www.w3.org/1999/02/22-rdf-syntax-ns#"
   xmlns:svg="http://www.w3.org/2000/svg"
   xmlns="http://www.w3.org/2000/svg"
   xmlns:sodipodi="http://sodipodi.sourceforge.net/DTD/sodipodi-0.dtd"
   xmlns:inkscape="http://www.inkscape.org/namespaces/inkscape"
   width="600"
   height="600"
   id="svg2997"
   version="1.1"
   inkscape:version="0.48.3.1 r9886"
   inkscape:export-filename="/home/gschmitz/piandmore/piandmore/ci/avatar.png"
   inkscape:export-xdpi="90"
   inkscape:export-ydpi="90"
   sodipodi:docname="avatar.svg">
  <defs
     id="defs2999" />
  <sodipodi:namedview
     id="base"
     pagecolor="#ffffff"
     bordercolor="#666666"
     borderopacity="1.0"
     inkscape:pageopacity="0.0"
     inkscape:pageshadow="2"
     inkscape:zoom="0.35"
     inkscape:cx="-357.14286"
     inkscape:cy="520"
     inkscape:document-units="px"
     inkscape:current-layer="layer1"
     showgrid="false"
     inkscape:window-width="1908"
     inkscape:window-height="1002"
     inkscape:window-x="0"
     inkscape:window-y="25"
     inkscape:window-maximized="1" />
  <metadata
     id="metadata3002">
    <rdf:RDF>
      <cc:Work
         rdf:about="">
        <dc:format>image/svg+xml</dc:format>
        <dc:type
           rdf:resource="http://purl.org/dc/dcmitype/StillImage" />
        <dc:title></dc:title>
      </cc:Work>
    </rdf:RDF>
  </metadata>
  <g
     inkscape:label="Ebene 1"
     inkscape:groupmode="layer"
     id="layer1"
     transform="translate(0,-452.36218)">
    <g
       id="g3811"
       transform="matrix(0.73762305,0,0,0.73762305,1307.3823,863.37073)">
      <g
         id="Pi"
         transform="translate(-1778.8908,-441.57248)">
        <path
           id="path5"
           d="m 77.25,223.625 c 0,0 12.5,-34.375 20,-53.75 18.75,-45.625 66.474,-47.689 130,-49.375 40.625,0 202.5,0 202.5,0 v 55 h -82.5 c 0,0 -8.75,106.25 -13.75,156.875 -4.02,106.468 85.625,80.625 81.25,26.875 8.75,0 9.375,0 15,0 -8.125,105 -78.75,101.875 -78.75,101.875 0,0 -65,5 -70.625,-73.125 1.843,-23.276 16.875,-213.125 16.875,-213.125 l -76.875,-1.25 c 0,0 -16.25,180.625 -17.5,196.25 -10.625,104.375 -66.25,91.25 -66.25,91.25 0,0 -45.625,-12.5 -26.875,-59.375 16.25,-35 67.5,-45 76.25,-226.875 C 110.375,162.375 94.75,223 94.75,223 l -17.5,0.625 z"
           stroke-miterlimit="10"
           inkscape:connector-curvature="0"
           style="fill:#bd1f48;stroke:#000000;stroke-width:6;stroke-miterlimit:10" />
      </g>
      <g
         id="_x2B__x2B_"
         transform="translate(-1778.8908,-441.57248)">
        <g
           id="g8">
          <path
             id="path10"
             d="m 443.378,263.637 h 50.29 v -50.413 h 39.645 v 50.413 h 50.29 v 39.645 h -50.29 v 50.29 h -39.645 v -50.29 h -50.29 v -39.645 z"
             stroke-miterlimit="10"
             inkscape:connector-curvature="0"
             style="fill:#71ac48;stroke:#000000;stroke-width:6;stroke-miterlimit:10" />
        </g>
        <g
           id="g12">
          <path
             id="path14"
             d="m 608.878,263.637 h 50.29 v -50.413 h 39.645 v 50.413 h 50.29 v 39.645 h -50.29 v 50.29 h -39.645 v -50.29 h -50.29 v -39.645 z"
             stroke-miterlimit="10"
             inkscape:connector-curvature="0"
             style="fill:#71ac48;stroke:#000000;stroke-width:6;stroke-miterlimit:10" />
        </g>
      </g>
    </g>
  </g>
</svg>
